<svg xmlns="http://www.w3.org/2000/svg" viewBox="0 0 500 380" width="100%" height="100%">
  <!-- Outer Background Container if needed -->
  <g transform="translate(0, 0)">
    <!-- Hanger Hook -->
    <path d="M 250 55 C 225 55 210 80 228 108 C 236 120 248 132 250 142" fill="none" stroke="#C5A059" stroke-width="9" stroke-linecap="round"/>
    
    <!-- Hanger Arms & Base -->
    <path d="M 250 142 L 85 215 C 65 224 65 242 85 248 L 175 248" fill="none" stroke="#C5A059" stroke-width="9" stroke-linecap="round" stroke-linejoin="round"/>
    <path d="M 250 142 L 415 215 C 435 224 435 242 415 248 L 325 248" fill="none" stroke="#C5A059" stroke-width="9" stroke-linecap="round" stroke-linejoin="round"/>
    
    <!-- TSP Monogram inside Hanger -->
    <!-- 'S' loop connecting to bottom bar -->
    <path d="M 215 205 C 190 190 190 220 225 235 C 250 246 235 272 205 264 C 185 258 175 248 175 248" fill="none" stroke="#C5A059" stroke-width="8" stroke-linecap="round"/>
    
    <!-- 'P' loop on right -->
    <path d="M 255 198 C 295 198 300 230 255 242 L 255 272" fill="none" stroke="#C5A059" stroke-width="8" stroke-linecap="round"/>
    
    <!-- 'T' central bar -->
    <path d="M 220 192 L 280 192 M 250 192 L 250 272" fill="none" stroke="#C5A059" stroke-width="8" stroke-linecap="round"/>

    <!-- Brand Name Text below Logo -->
    <text x="250" y="335" font-family="'Cormorant Garamond', 'Montserrat', serif" font-size="38" font-weight="400" fill="#FFFFFF" text-anchor="middle" letter-spacing="4">The Shirt Project</text>
  </g>
</svg>
